<?xml version="1.0" encoding="UTF-8"?>
<svg id="Layer_1" xmlns="http://www.w3.org/2000/svg" version="1.1" viewBox="0 0 130 130">
  <!-- Generator: Adobe Illustrator 29.5.1, SVG Export Plug-In . SVG Version: 2.1.0 Build 141)  -->
  <defs>
    <style>
      .st0, .st1 {
        fill: none;
      }

      .st1 {
        stroke-width: 7px;
      }

      .st1, .st2 {
        stroke: #fff;
        stroke-miterlimit: 10;
      }

      .st2 {
        fill: #fcfcfc;
        stroke-width: .75px;
      }
    </style>
  </defs>
  <rect class="st0" y="23.48" width="129.73" height="83.19"/>
  <g>
    <path class="st1" d="M34.46,43.64s.7-10.06,12.27-14.78c11.57-4.72,20.46,3.23,20.46,3.23l3.64,3.23s7.13-5.18,16.06.2c6.87,4.14,6.14,12.73,6.14,12.73,0,0,13.8,2.17,14.17,13.13.3,8.99-3.43,13.06-6.67,15.76-3.23,2.7-8.18,3.05-8.18,3.05l-4.14-.05H29.21s-13.03-.55-13.03-15.22c0-16.77,13.81-20.72,18.08-20.71,7.57.02,11.37,3.17,16.06,6.38,4.5,3.08,6.87,7.66,10,11.29,3.13,3.64,6.77,7.17,10.81,8.08,4.04.91,7.68.73,7.68.73"/>
    <polygon class="st1" points="78.85 67.91 83.53 70.61 78.85 73.31 78.85 67.91"/>
  </g>
  <g>
    <path class="st2" d="M.59,104.59c.98-.07,1.84-.32,2.35-.83.59-.63.81-1.49.81-4.11v-9.14h2.16v9.91c0,2.12-.37,3.5-1.42,4.49-.96.88-2.53,1.24-3.68,1.24l-.22-1.56ZM6.16,87.44c.02.65-.49,1.22-1.35,1.22-.81,0-1.32-.56-1.32-1.22,0-.7.56-1.24,1.37-1.24s1.3.54,1.3,1.24Z"/>
    <path class="st2" d="M19.38,98.45c0,1.13.02,2.12.1,2.98h-1.91l-.12-1.78h-.05c-.56.88-1.81,2.03-3.92,2.03-1.86,0-4.1-.95-4.1-4.79v-6.39h2.16v6.05c0,2.08.69,3.48,2.65,3.48,1.45,0,2.45-.93,2.84-1.81.12-.29.2-.65.2-1.02v-6.7h2.16v7.94h-.01Z"/>
    <path class="st2" d="M22.66,99.4c.64.38,1.77.79,2.84.79,1.57,0,2.31-.72,2.31-1.63s-.61-1.47-2.21-2.01c-2.13-.7-3.14-1.78-3.14-3.09,0-1.76,1.55-3.21,4.1-3.21,1.2,0,2.26.32,2.92.68l-.54,1.44c-.47-.27-1.32-.63-2.43-.63-1.28,0-1.99.68-1.99,1.49,0,.9.71,1.31,2.26,1.85,2.06.72,3.11,1.67,3.11,3.3,0,1.92-1.62,3.27-4.44,3.27-1.3,0-2.5-.29-3.34-.74l.54-1.51h.01Z"/>
    <path class="st2" d="M35.27,87.37v3.14h3.09v1.51h-3.09v5.89c0,1.35.42,2.12,1.62,2.12.56,0,.98-.07,1.25-.14l.1,1.49c-.42.16-1.08.27-1.91.27-1.01,0-1.81-.29-2.33-.84-.61-.59-.83-1.56-.83-2.84v-5.96h-1.84v-1.51h1.84v-2.62l2.11-.52h0Z"/>
    <path class="st2" d="M40.78,93.92c0-1.29-.02-2.39-.1-3.41h1.89l.07,2.14h.1c.54-1.47,1.84-2.39,3.29-2.39.25,0,.42.02.61.07v1.87c-.22-.05-.44-.07-.74-.07-1.52,0-2.6,1.06-2.89,2.55-.05.27-.1.59-.1.93v5.82h-2.13v-7.52h0Z"/>
    <path class="st2" d="M55.28,101.43l-.17-1.38h-.07c-.66.86-1.94,1.63-3.63,1.63-2.4,0-3.63-1.56-3.63-3.14,0-2.64,2.55-4.09,7.14-4.06v-.23c0-.9-.27-2.53-2.7-2.53-1.1,0-2.26.32-3.09.81l-.49-1.31c.98-.59,2.4-.97,3.9-.97,3.63,0,4.51,2.28,4.51,4.47v4.09c0,.95.05,1.87.2,2.62h-1.97ZM54.96,95.86c-2.35-.05-5.03.34-5.03,2.46,0,1.29.93,1.9,2.04,1.9,1.55,0,2.53-.9,2.87-1.83.07-.2.12-.43.12-.63v-1.9Z"/>
    <path class="st2" d="M60.52,93.47c0-1.13-.02-2.05-.1-2.96h1.91l.12,1.81h.05c.59-1.04,1.96-2.05,3.92-2.05,1.64,0,4.19.9,4.19,4.65v6.52h-2.16v-6.3c0-1.76-.71-3.23-2.75-3.23-1.42,0-2.53.93-2.89,2.03-.1.25-.15.59-.15.93v6.57h-2.16v-7.97h.02Z"/>
    <path class="st2" d="M73.84,99.4c.64.38,1.77.79,2.84.79,1.57,0,2.31-.72,2.31-1.63s-.61-1.47-2.21-2.01c-2.13-.7-3.14-1.78-3.14-3.09,0-1.76,1.55-3.21,4.1-3.21,1.2,0,2.26.32,2.92.68l-.54,1.44c-.47-.27-1.32-.63-2.43-.63-1.28,0-1.99.68-1.99,1.49,0,.9.71,1.31,2.26,1.85,2.06.72,3.11,1.67,3.11,3.3,0,1.92-1.62,3.27-4.44,3.27-1.3,0-2.5-.29-3.34-.74l.54-1.51h.01Z"/>
    <path class="st2" d="M84.07,101.43v-9.41h-1.67v-1.51h1.67v-.52c0-1.54.37-2.93,1.37-3.81.81-.72,1.89-1.02,2.89-1.02.76,0,1.42.16,1.84.32l-.29,1.53c-.32-.13-.76-.25-1.37-.25-1.84,0-2.3,1.49-2.3,3.16v.59h2.87v1.51h-2.87v9.41h-2.14Z"/>
    <path class="st2" d="M101.45,95.88c0,4.04-3.04,5.8-5.91,5.8-3.21,0-5.69-2.17-5.69-5.62,0-3.66,2.6-5.8,5.89-5.8s5.71,2.28,5.71,5.62ZM92.03,95.99c0,2.39,1.5,4.2,3.61,4.2s3.6-1.78,3.6-4.24c0-1.85-1.01-4.2-3.56-4.2s-3.65,2.17-3.65,4.24Z"/>
    <path class="st2" d="M104.17,93.92c0-1.29-.02-2.39-.1-3.41h1.89l.07,2.14h.1c.54-1.47,1.84-2.39,3.29-2.39.24,0,.42.02.61.07v1.87c-.22-.05-.44-.07-.73-.07-1.52,0-2.6,1.06-2.89,2.55-.05.27-.1.59-.1.93v5.82h-2.13v-7.52h-.01Z"/>
    <path class="st2" d="M112.27,93.47c0-1.13-.03-2.05-.1-2.96h1.89l.1,1.76h.07c.66-1.04,1.77-2.01,3.73-2.01,1.62,0,2.84.9,3.36,2.19h.05c.37-.61.83-1.08,1.32-1.42.71-.5,1.5-.77,2.62-.77,1.57,0,3.9.95,3.9,4.74v6.43h-2.11v-6.19c0-2.1-.83-3.36-2.57-3.36-1.23,0-2.18.83-2.55,1.81-.1.27-.17.63-.17.99v6.75h-2.11v-6.55c0-1.74-.83-3-2.48-3-1.35,0-2.33.99-2.67,1.99-.12.29-.17.63-.17.97v6.59h-2.11v-7.97h0Z"/>
  </g>
</svg>